<svg width="26" height="26" viewBox="0 0 26 26" fill="none" xmlns="http://www.w3.org/2000/svg">
<path d="M24.3793 15.143C24.4529 15.2166 24.5529 15.258 24.6571 15.258C24.7613 15.258 24.8612 15.2166 24.9349 15.143C25.0085 15.0693 25.0499 14.9694 25.0499 14.8652V13.8469C25.0499 13.7427 25.0085 13.6428 24.9349 13.5691C24.8612 13.4954 24.7613 13.454 24.6571 13.454C24.5529 13.454 24.4529 13.4954 24.3793 13.5691C24.3056 13.6428 24.2642 13.7427 24.2642 13.8469V14.8652C24.2642 14.9694 24.3056 15.0693 24.3793 15.143Z" fill="#2B2A28" stroke="#2B2A28" stroke-width="0.1"/>
<path d="M2.37143 25.05H23.6286C24.0056 25.05 24.3671 24.9002 24.6337 24.6337C24.9002 24.3671 25.05 24.0056 25.05 23.6286V17.2651C25.05 17.161 25.0086 17.061 24.9349 16.9874C24.8613 16.9137 24.7613 16.8723 24.6571 16.8723C24.5529 16.8723 24.453 16.9137 24.3794 16.9874C24.3057 17.061 24.2643 17.161 24.2643 17.2651V23.6286C24.2643 23.7972 24.1973 23.9589 24.0781 24.0781C23.9589 24.1973 23.7972 24.2643 23.6286 24.2643H2.37143C2.20283 24.2643 2.04113 24.1973 1.92191 24.0781C1.80269 23.9589 1.73571 23.7972 1.73571 23.6286V2.37143C1.73571 2.20283 1.80269 2.04113 1.92191 1.92191C2.04113 1.80269 2.20283 1.73571 2.37143 1.73571H23.6286C23.7972 1.73571 23.9589 1.80269 24.0781 1.92191C24.1973 2.04113 24.2643 2.20283 24.2643 2.37143V8.04914C24.2643 8.15333 24.3057 8.25326 24.3794 8.32693C24.453 8.40061 24.553 8.442 24.6571 8.442C24.7613 8.442 24.8613 8.40061 24.9349 8.32694C25.0086 8.25326 25.05 8.15333 25.05 8.04914V2.37143C25.05 1.99444 24.9002 1.6329 24.6337 1.36633C24.3671 1.09976 24.0056 0.95 23.6286 0.95H2.37143C1.99444 0.95 1.6329 1.09976 1.36633 1.36633C1.09976 1.6329 0.95 1.99444 0.95 2.37143V23.6286C0.95 24.0056 1.09976 24.3671 1.36633 24.6337C1.6329 24.9002 1.99444 25.05 2.37143 25.05Z" fill="#2B2A28" stroke="#2B2A28" stroke-width="0.1"/>
<path d="M24.3793 11.7247C24.4529 11.7984 24.5529 11.8398 24.6571 11.8398C24.7613 11.8398 24.8612 11.7984 24.9349 11.7247C25.0085 11.651 25.0499 11.5511 25.0499 11.4469V10.4492C25.0499 10.345 25.0085 10.2451 24.9349 10.1714C24.8612 10.0977 24.7613 10.0563 24.6571 10.0563C24.5529 10.0563 24.4529 10.0977 24.3793 10.1714C24.3056 10.2451 24.2642 10.345 24.2642 10.4492V11.4469C24.2642 11.5511 24.3056 11.651 24.3793 11.7247Z" fill="#2B2A28" stroke="#2B2A28" stroke-width="0.1"/>
<mask id="path-4-outside-1_131_177" maskUnits="userSpaceOnUse" x="12.5858" y="4.09492" width="11.3137" height="11.3137" fill="black">
<rect fill="white" x="12.5858" y="4.09492" width="11.3137" height="11.3137"/>
<path fill-rule="evenodd" clip-rule="evenodd" d="M20.9974 8.07343C21.0884 8.07343 21.1756 8.03731 21.2399 7.97301C21.3042 7.90872 21.3403 7.82151 21.3403 7.73058C21.3403 7.63965 21.3042 7.55244 21.2399 7.48814L18.9942 5.24245C18.9299 5.17815 18.8427 5.14203 18.7518 5.14203C18.6608 5.14203 18.5736 5.17815 18.5093 5.24245L16.2636 7.48814C16.1993 7.55244 16.1632 7.63965 16.1632 7.73058C16.1632 7.82151 16.1993 7.90872 16.2636 7.97301C16.3279 8.03731 16.4151 8.07343 16.5061 8.07343C16.597 8.07343 16.6842 8.03731 16.7485 7.97301L18.4089 6.31257L18.4089 14.0187C18.409 14.0865 18.4291 14.1528 18.4667 14.2092C18.5044 14.2656 18.5579 14.3095 18.6206 14.3355C18.6832 14.3614 18.7521 14.3682 18.8186 14.355C18.8851 14.3418 18.9462 14.3091 18.9942 14.2612C19.0585 14.1969 19.0946 14.1097 19.0946 14.0187L19.0946 6.31256L20.755 7.97301C20.8193 8.03731 20.9065 8.07343 20.9974 8.07343Z"/>
</mask>
<path fill-rule="evenodd" clip-rule="evenodd" d="M20.9974 8.07343C21.0884 8.07343 21.1756 8.03731 21.2399 7.97301C21.3042 7.90872 21.3403 7.82151 21.3403 7.73058C21.3403 7.63965 21.3042 7.55244 21.2399 7.48814L18.9942 5.24245C18.9299 5.17815 18.8427 5.14203 18.7518 5.14203C18.6608 5.14203 18.5736 5.17815 18.5093 5.24245L16.2636 7.48814C16.1993 7.55244 16.1632 7.63965 16.1632 7.73058C16.1632 7.82151 16.1993 7.90872 16.2636 7.97301C16.3279 8.03731 16.4151 8.07343 16.5061 8.07343C16.597 8.07343 16.6842 8.03731 16.7485 7.97301L18.4089 6.31257L18.4089 14.0187C18.409 14.0865 18.4291 14.1528 18.4667 14.2092C18.5044 14.2656 18.5579 14.3095 18.6206 14.3355C18.6832 14.3614 18.7521 14.3682 18.8186 14.355C18.8851 14.3418 18.9462 14.3091 18.9942 14.2612C19.0585 14.1969 19.0946 14.1097 19.0946 14.0187L19.0946 6.31256L20.755 7.97301C20.8193 8.03731 20.9065 8.07343 20.9974 8.07343Z" fill="#2B2A28"/>
<path d="M21.3403 7.73058L21.2403 7.73058L21.2403 7.73058H21.3403ZM18.7518 5.14203V5.24203L18.7518 5.24203L18.7518 5.14203ZM16.5061 8.07343V7.97343V8.07343ZM18.4089 6.31257H18.5089L18.5089 6.07115L18.3382 6.24186L18.4089 6.31257ZM18.4089 14.0187L18.3089 14.0187L18.3089 14.0188L18.4089 14.0187ZM18.4667 14.2092L18.5499 14.1536L18.5499 14.1536L18.4667 14.2092ZM18.6206 14.3355L18.5823 14.4278L18.5823 14.4278L18.6206 14.3355ZM18.8186 14.355L18.7991 14.2569L18.7991 14.2569L18.8186 14.355ZM18.9942 14.2612L19.0649 14.3319L19.0649 14.3319L18.9942 14.2612ZM19.0946 14.0187H18.9946L18.9946 14.0188L19.0946 14.0187ZM19.0946 6.31256L19.1653 6.24185L18.9946 6.07114L18.9946 6.31256H19.0946ZM21.1692 7.9023C21.1236 7.94785 21.0619 7.97343 20.9974 7.97343V8.17343C21.1149 8.17343 21.2275 8.12678 21.3106 8.04372L21.1692 7.9023ZM21.2403 7.73058C21.2403 7.79499 21.2147 7.85676 21.1692 7.9023L21.3106 8.04372C21.3936 7.96067 21.4403 7.84803 21.4403 7.73058H21.2403ZM21.1692 7.55885C21.2147 7.6044 21.2403 7.66617 21.2403 7.73058L21.4403 7.73058C21.4403 7.61312 21.3936 7.50048 21.3106 7.41743L21.1692 7.55885ZM18.9235 5.31316L21.1692 7.55885L21.3106 7.41743L19.0649 5.17174L18.9235 5.31316ZM18.7518 5.24203C18.8162 5.24203 18.8779 5.26762 18.9235 5.31316L19.0649 5.17174C18.9819 5.08869 18.8692 5.04203 18.7518 5.04203L18.7518 5.24203ZM18.58 5.31316C18.6256 5.26762 18.6873 5.24203 18.7518 5.24203L18.7518 5.04203C18.6343 5.04203 18.5217 5.08869 18.4386 5.17174L18.58 5.31316ZM16.3343 7.55885L18.58 5.31316L18.4386 5.17174L16.1929 7.41743L16.3343 7.55885ZM16.2632 7.73058C16.2632 7.66617 16.2888 7.6044 16.3343 7.55885L16.1929 7.41743C16.1099 7.50048 16.0632 7.61312 16.0632 7.73058L16.2632 7.73058ZM16.3343 7.9023C16.2888 7.85676 16.2632 7.79499 16.2632 7.73058L16.0632 7.73058C16.0632 7.84803 16.1099 7.96067 16.1929 8.04372L16.3343 7.9023ZM16.5061 7.97343C16.4417 7.97343 16.3799 7.94785 16.3343 7.9023L16.1929 8.04372C16.276 8.12678 16.3886 8.17343 16.5061 8.17343V7.97343ZM16.6778 7.9023C16.6322 7.94785 16.5705 7.97343 16.5061 7.97343V8.17343C16.6235 8.17343 16.7362 8.12678 16.8192 8.04372L16.6778 7.9023ZM18.3382 6.24186L16.6778 7.9023L16.8192 8.04372L18.4797 6.38329L18.3382 6.24186ZM18.5089 14.0187L18.5089 6.31257H18.3089L18.3089 14.0187L18.5089 14.0187ZM18.5499 14.1536C18.5232 14.1137 18.5089 14.0668 18.5089 14.0187L18.3089 14.0188C18.309 14.1063 18.3349 14.1919 18.3836 14.2648L18.5499 14.1536ZM18.6589 14.2431C18.6145 14.2247 18.5766 14.1936 18.5499 14.1536L18.3836 14.2648C18.4322 14.3376 18.5014 14.3943 18.5823 14.4278L18.6589 14.2431ZM18.7991 14.2569C18.752 14.2663 18.7032 14.2614 18.6589 14.2431L18.5823 14.4278C18.6632 14.4614 18.7522 14.4701 18.8381 14.4531L18.7991 14.2569ZM18.9235 14.1905C18.8895 14.2244 18.8463 14.2475 18.7991 14.2569L18.8381 14.4531C18.924 14.436 19.0029 14.3938 19.0649 14.3319L18.9235 14.1905ZM18.9946 14.0188C18.9946 14.0832 18.969 14.1449 18.9235 14.1905L19.0649 14.3319C19.1479 14.2488 19.1946 14.1362 19.1946 14.0187L18.9946 14.0188ZM18.9946 6.31256L18.9946 14.0187H19.1946L19.1946 6.31256H18.9946ZM20.8257 7.9023L19.1653 6.24185L19.0238 6.38327L20.6843 8.04372L20.8257 7.9023ZM20.9974 7.97343C20.933 7.97343 20.8713 7.94785 20.8257 7.9023L20.6843 8.04372C20.7674 8.12678 20.88 8.17343 20.9974 8.17343V7.97343Z" fill="#2B2A28" mask="url(#path-4-outside-1_131_177)"/>
<mask id="path-6-outside-2_131_177" maskUnits="userSpaceOnUse" x="3.81531" y="12.5858" width="11.3137" height="11.3137" fill="black">
<rect fill="white" x="3.81531" y="12.5858" width="11.3137" height="11.3137"/>
<path fill-rule="evenodd" clip-rule="evenodd" d="M4.96577 18.9912C4.91784 18.9432 4.8852 18.8821 4.87199 18.8156L4.96577 18.9912ZM4.87199 18.8156C4.86786 18.7948 4.86568 18.7738 4.86543 18.7528L4.87199 18.8156ZM4.86543 18.7528C4.86541 18.7515 4.86541 18.7501 4.86541 18.7488L4.86543 18.7528ZM4.86541 18.7488C4.86541 18.7291 4.86709 18.7096 4.87044 18.6902L4.86541 18.7488ZM4.87044 18.6902C4.8715 18.6841 4.87273 18.678 4.87413 18.6719L4.87044 18.6902ZM4.87413 18.6719C4.87838 18.6534 4.88418 18.6353 4.89151 18.6176L4.87413 18.6719ZM4.89151 18.6176C4.89475 18.6097 4.89828 18.602 4.90207 18.5945L4.89151 18.6176ZM4.90207 18.5945C4.91853 18.5618 4.94008 18.5321 4.96582 18.5063L4.90207 18.5945ZM4.96583 18.5063L7.21152 16.2607C7.24335 16.2288 7.28115 16.2036 7.32275 16.1863C7.36434 16.1691 7.40893 16.1602 7.45395 16.1602C7.49898 16.1602 7.54356 16.1691 7.58516 16.1863C7.62676 16.2036 7.66455 16.2288 7.69639 16.2607C7.72823 16.2925 7.75348 16.3303 7.77071 16.3719C7.78794 16.4135 7.79681 16.4581 7.79681 16.5031C7.79681 16.5481 7.78794 16.5927 7.77071 16.6343C7.75348 16.6759 7.72823 16.7137 7.69639 16.7455L6.03599 18.4059L13.742 18.4059C13.8319 18.4075 13.9175 18.4443 13.9806 18.5084C14.0436 18.5725 14.0789 18.6588 14.0789 18.7487C14.0789 18.8386 14.0436 18.9249 13.9806 18.989C13.9175 19.0532 13.8319 19.09 13.742 19.0915L6.03589 19.0915L7.69639 20.752C7.76069 20.8163 7.79681 20.9035 7.79681 20.9945C7.79681 21.0854 7.76069 21.1726 7.69639 21.2369C7.63209 21.3012 7.54488 21.3373 7.45395 21.3373C7.36302 21.3373 7.27581 21.3012 7.21152 21.2369L4.96583 18.9912"/>
</mask>
<path fill-rule="evenodd" clip-rule="evenodd" d="M4.96577 18.9912C4.91784 18.9432 4.8852 18.8821 4.87199 18.8156L4.96577 18.9912ZM4.87199 18.8156C4.86786 18.7948 4.86568 18.7738 4.86543 18.7528L4.87199 18.8156ZM4.86543 18.7528C4.86541 18.7515 4.86541 18.7501 4.86541 18.7488L4.86543 18.7528ZM4.86541 18.7488C4.86541 18.7291 4.86709 18.7096 4.87044 18.6902L4.86541 18.7488ZM4.87044 18.6902C4.8715 18.6841 4.87273 18.678 4.87413 18.6719L4.87044 18.6902ZM4.87413 18.6719C4.87838 18.6534 4.88418 18.6353 4.89151 18.6176L4.87413 18.6719ZM4.89151 18.6176C4.89475 18.6097 4.89828 18.602 4.90207 18.5945L4.89151 18.6176ZM4.90207 18.5945C4.91853 18.5618 4.94008 18.5321 4.96582 18.5063L4.90207 18.5945ZM4.96583 18.5063L7.21152 16.2607C7.24335 16.2288 7.28115 16.2036 7.32275 16.1863C7.36434 16.1691 7.40893 16.1602 7.45395 16.1602C7.49898 16.1602 7.54356 16.1691 7.58516 16.1863C7.62676 16.2036 7.66455 16.2288 7.69639 16.2607C7.72823 16.2925 7.75348 16.3303 7.77071 16.3719C7.78794 16.4135 7.79681 16.4581 7.79681 16.5031C7.79681 16.5481 7.78794 16.5927 7.77071 16.6343C7.75348 16.6759 7.72823 16.7137 7.69639 16.7455L6.03599 18.4059L13.742 18.4059C13.8319 18.4075 13.9175 18.4443 13.9806 18.5084C14.0436 18.5725 14.0789 18.6588 14.0789 18.7487C14.0789 18.8386 14.0436 18.9249 13.9806 18.989C13.9175 19.0532 13.8319 19.09 13.742 19.0915L6.03589 19.0915L7.69639 20.752C7.76069 20.8163 7.79681 20.9035 7.79681 20.9945C7.79681 21.0854 7.76069 21.1726 7.69639 21.2369C7.63209 21.3012 7.54488 21.3373 7.45395 21.3373C7.36302 21.3373 7.27581 21.3012 7.21152 21.2369L4.96583 18.9912" fill="#2B2A28"/>
<path d="M4.87199 18.8156L4.82226 18.8208L4.82327 18.8306L4.82789 18.8392L4.87199 18.8156ZM4.86543 18.7528L4.81519 18.7531L4.8157 18.758L4.86543 18.7528ZM4.86541 18.7488L4.81538 18.7445L4.81541 18.7491L4.86541 18.7488ZM4.87044 18.6902L4.82111 18.6803L4.82063 18.6859L4.87044 18.6902ZM4.87413 18.6719L4.82621 18.6566L4.82511 18.6621L4.87413 18.6719ZM4.89151 18.6176L4.84572 18.5966L4.84388 18.6023L4.89151 18.6176ZM4.90207 18.5945L4.86076 18.5646L4.85662 18.5737L4.90207 18.5945ZM5.00987 18.9676L4.91609 18.7921L4.82789 18.8392L4.92167 19.0147L5.00987 18.9676ZM4.92172 18.8104L4.91516 18.7476L4.8157 18.758L4.82226 18.8208L4.92172 18.8104ZM4.91543 18.7525L4.9154 18.7485L4.81541 18.7491L4.81543 18.7531L4.91543 18.7525ZM4.91522 18.7531L4.92026 18.6945L4.82063 18.6859L4.81559 18.7445L4.91522 18.7531ZM4.91946 18.7001L4.92314 18.6818L4.82511 18.6621L4.82143 18.6803L4.91946 18.7001ZM4.92175 18.6872L4.93913 18.6328L4.84388 18.6023L4.8265 18.6567L4.92175 18.6872ZM4.93696 18.6384L4.94753 18.6153L4.85662 18.5737L4.84605 18.5967L4.93696 18.6384ZM4.94259 18.6238L5.00634 18.5356L4.92531 18.477L4.86155 18.5652L4.94259 18.6238ZM5.01583 18.9912L5.01583 18.5063L4.91583 18.5063L4.91583 18.9912L5.01583 18.9912ZM4.87199 18.8156L4.7739 18.8351L4.7739 18.8351L4.87199 18.8156ZM4.86543 18.7528L4.76544 18.754L4.76544 18.754L4.86543 18.7528ZM4.86541 18.7488L4.76541 18.7488L4.76541 18.7488L4.86541 18.7488ZM4.87044 18.6902L4.77191 18.6731L4.77191 18.6731L4.87044 18.6902ZM4.87413 18.6719L4.97158 18.6944L4.97158 18.6944L4.87413 18.6719ZM4.89151 18.6176L4.79912 18.5793L4.79912 18.5793L4.89151 18.6176ZM4.90207 18.5945L4.99138 18.6395L4.99138 18.6395L4.90207 18.5945ZM7.32275 16.1863L7.36102 16.2787L7.32275 16.1863ZM7.45395 16.1602L7.45395 16.2602L7.45395 16.1602ZM7.58516 16.1863L7.62343 16.0939L7.62343 16.0939L7.58516 16.1863ZM7.77071 16.3719L7.8631 16.3336L7.8631 16.3336L7.77071 16.3719ZM7.77071 16.6343L7.67832 16.596L7.67832 16.596L7.77071 16.6343ZM6.03599 18.4059L5.96528 18.3352L5.79457 18.5059L6.03599 18.5059V18.4059ZM13.742 18.4059L13.7437 18.3059L13.742 18.3059L13.742 18.4059ZM14.0789 18.7487L14.1789 18.7487L14.1789 18.7487L14.0789 18.7487ZM13.742 19.0915L13.742 19.1915L13.7437 19.1915L13.742 19.0915ZM6.03589 19.0915V18.9915L5.79447 18.9915L5.96518 19.1622L6.03589 19.0915ZM7.45395 21.3373V21.2373L7.45395 21.2373L7.45395 21.3373ZM5.0365 18.9205C5.00255 18.8865 4.97943 18.8432 4.97007 18.7961L4.7739 18.8351C4.79098 18.921 4.83314 18.9999 4.89505 19.0619L5.0365 18.9205ZM4.97007 18.7961C4.96714 18.7814 4.9656 18.7665 4.96542 18.7517L4.76544 18.754C4.76576 18.7811 4.76857 18.8083 4.7739 18.8351L4.97007 18.7961ZM4.96542 18.7517C4.96541 18.7507 4.96541 18.7497 4.96541 18.7488L4.76541 18.7488C4.76541 18.7505 4.76542 18.7523 4.76544 18.754L4.96542 18.7517ZM4.96541 18.7488C4.96541 18.7349 4.9666 18.721 4.96897 18.7073L4.77191 18.6731C4.76758 18.6981 4.76541 18.7234 4.76541 18.7488L4.96541 18.7488ZM4.96897 18.7073C4.96973 18.703 4.9706 18.6986 4.97158 18.6944L4.77667 18.6495C4.77487 18.6574 4.77328 18.6652 4.77191 18.6731L4.96897 18.7073ZM4.97158 18.6944C4.9746 18.6813 4.9787 18.6684 4.98389 18.6558L4.79912 18.5793C4.78966 18.6021 4.78216 18.6256 4.77667 18.6495L4.97158 18.6944ZM4.98389 18.6558C4.98619 18.6503 4.98869 18.6448 4.99138 18.6395L4.81276 18.5495C4.80786 18.5593 4.80331 18.5692 4.79912 18.5793L4.98389 18.6558ZM4.99138 18.6395C5.00304 18.6164 5.0183 18.5953 5.03654 18.5771L4.89511 18.4356C4.86186 18.4689 4.83403 18.5073 4.81276 18.5495L4.99138 18.6395ZM5.03654 18.5771L7.28223 16.3314L7.14081 16.1899L4.89512 18.4356L5.03654 18.5771ZM7.28223 16.3314C7.30478 16.3088 7.33155 16.2909 7.36102 16.2787L7.28448 16.0939C7.23075 16.1162 7.18193 16.1488 7.14081 16.1899L7.28223 16.3314ZM7.36102 16.2787C7.39048 16.2665 7.42206 16.2602 7.45395 16.2602L7.45395 16.0602C7.3958 16.0602 7.33821 16.0717 7.28448 16.0939L7.36102 16.2787ZM7.45395 16.2602C7.48584 16.2602 7.51742 16.2665 7.54689 16.2787L7.62343 16.0939C7.5697 16.0717 7.51211 16.0602 7.45395 16.0602L7.45395 16.2602ZM7.54689 16.2787C7.57636 16.2909 7.60313 16.3088 7.62568 16.3314L7.7671 16.1899C7.72598 16.1488 7.67716 16.1162 7.62343 16.0939L7.54689 16.2787ZM7.62568 16.3314C7.64823 16.3539 7.66612 16.3807 7.67832 16.4102L7.8631 16.3336C7.84084 16.2799 7.80822 16.2311 7.7671 16.1899L7.62568 16.3314ZM7.67832 16.4102C7.69053 16.4396 7.69681 16.4712 7.69681 16.5031H7.89681C7.89681 16.4449 7.88535 16.3873 7.8631 16.3336L7.67832 16.4102ZM7.69681 16.5031C7.69681 16.535 7.69053 16.5666 7.67832 16.596L7.8631 16.6726C7.88536 16.6188 7.89681 16.5612 7.89681 16.5031H7.69681ZM7.67832 16.596C7.66612 16.6255 7.64823 16.6523 7.62568 16.6748L7.7671 16.8162C7.80822 16.7751 7.84084 16.7263 7.8631 16.6726L7.67832 16.596ZM7.62568 16.6748L5.96528 18.3352L6.1067 18.4766L7.7671 16.8162L7.62568 16.6748ZM6.03599 18.5059L13.742 18.5059L13.742 18.3059L6.03599 18.3059V18.5059ZM13.7402 18.5059C13.8039 18.507 13.8646 18.5331 13.9092 18.5785L14.0519 18.4383C13.9705 18.3555 13.8598 18.308 13.7437 18.3059L13.7402 18.5059ZM13.9092 18.5785C13.9539 18.6239 13.9789 18.685 13.9789 18.7487L14.1789 18.7487C14.1789 18.6326 14.1333 18.5211 14.0519 18.4383L13.9092 18.5785ZM13.9789 18.7487C13.9789 18.8124 13.9539 18.8735 13.9092 18.919L14.0519 19.0591C14.1333 18.9763 14.1789 18.8648 14.1789 18.7487L13.9789 18.7487ZM13.9092 18.919C13.8646 18.9644 13.8039 18.9904 13.7402 18.9915L13.7437 19.1915C13.8598 19.1895 13.9705 19.142 14.0519 19.0591L13.9092 18.919ZM13.742 18.9915L6.03589 18.9915V19.1915L13.742 19.1915V18.9915ZM5.96518 19.1622L7.62568 20.8227L7.7671 20.6813L6.1066 19.0208L5.96518 19.1622ZM7.62568 20.8227C7.67122 20.8683 7.69681 20.9301 7.69681 20.9945H7.89681C7.89681 20.877 7.85015 20.7644 7.7671 20.6813L7.62568 20.8227ZM7.69681 20.9945C7.69681 21.0589 7.67122 21.1207 7.62568 21.1662L7.7671 21.3076C7.85015 21.2246 7.89681 21.1119 7.89681 20.9945H7.69681ZM7.62568 21.1662C7.58013 21.2117 7.51836 21.2373 7.45395 21.2373V21.4373C7.57141 21.4373 7.68405 21.3907 7.7671 21.3076L7.62568 21.1662ZM7.45395 21.2373C7.38954 21.2373 7.32777 21.2117 7.28223 21.1662L7.14081 21.3076C7.22386 21.3907 7.3365 21.4373 7.45395 21.4373L7.45395 21.2373ZM7.28223 21.1662L5.03654 18.9205L4.89512 19.0619L7.14081 21.3076L7.28223 21.1662Z" fill="#2B2A28" mask="url(#path-6-outside-2_131_177)"/>
</svg>
