<svg width="59" height="62" viewBox="0 0 59 62" fill="none" xmlns="http://www.w3.org/2000/svg">
<path d="M36.2291 57.1829L36.2534 57.1859L44.725 58.259L44.751 58.2623L44.7631 58.2856L46.2304 61.1135C46.4961 61.6256 47.217 61.7488 47.6285 61.2937L50.5141 58.101C50.6658 57.933 50.7452 57.7119 50.7346 57.4858L50.5832 54.2291L50.5819 54.2021L50.6038 54.1863C51.4824 53.5485 52.0894 52.5338 52.2283 51.4551L53.3422 42.81L53.351 42.7418L53.4132 42.7711C54.96 43.5008 56.8496 42.4804 57.0697 40.7721L58.5075 29.6125C58.7627 27.6331 57.5615 25.6729 55.6754 25.0128L55.6357 24.9989L55.6426 24.9574C55.9962 22.8202 54.6984 20.6733 52.5258 20.2201L52.4807 20.2106L52.4864 20.1649L53.9805 8.24349C54.2029 6.46851 52.8818 4.77586 51.1049 4.55349L15.3102 0.0757037C15.3102 0.0757026 15.3102 0.0757014 15.3102 0.0757003C13.4982 -0.149939 11.8398 1.13556 11.613 2.94319C11.6108 2.96095 11.6091 2.97875 11.6081 2.99626L11.6079 2.99959L11.6078 2.99958L11.0014 7.83814L10.9959 7.88192H10.9518H3.36206C1.53584 7.88192 0.05 9.36447 0.05 11.1862V46.2476C0.0685053 46.8106 0.484623 47.0966 0.904944 47.0997C1.11562 47.1012 1.32523 47.0314 1.48451 46.8906C1.64289 46.7506 1.75441 46.5379 1.76596 46.2474V11.1862C1.76596 10.3101 2.48216 9.59788 3.36206 9.59788H39.4362C40.316 9.59788 41.0322 10.3101 41.0322 11.1862V49.4199V49.4699H40.9822H33.5466C31.7203 49.4699 30.2345 50.9524 30.2345 52.7743V60.1839V60.2339H30.1845H3.36206C2.48216 60.2339 1.76596 59.5217 1.76596 58.6456V51.0849C1.76596 50.6109 1.38182 50.2269 0.907979 50.2269C0.434142 50.2269 0.05 50.6109 0.05 51.0849V58.6456C0.05 60.4675 1.53572 61.95 3.36206 61.95H31.0925C31.3191 61.95 31.5378 61.8569 31.6998 61.6981L36.2291 57.1829ZM36.2291 57.1829L36.2118 57.2001L31.7001 61.6978L36.2291 57.1829ZM48.6426 29.9562L48.6922 29.9626L53.143 30.536L53.1926 30.5424L53.1862 30.592L52.954 32.3937C52.9183 32.6708 52.9986 32.889 53.1387 33.0451C53.2797 33.2023 53.4839 33.2993 53.6988 33.3269C53.9138 33.3546 54.1359 33.3125 54.3122 33.1962C54.4873 33.0807 54.6202 32.8899 54.6559 32.6129L55.4006 26.8339L55.4099 26.7617L55.4739 26.7963C55.787 26.9653 56.0654 27.1979 56.2895 27.4882C56.7102 28.0333 56.8935 28.71 56.8055 29.3931L55.3677 40.5527C55.3331 40.8212 55.1994 41.0105 55.0189 41.1241C54.8398 41.2369 54.6178 41.2733 54.4068 41.2444C54.1958 41.2154 53.9916 41.1206 53.8486 40.9653C53.7047 40.809 53.625 40.5937 53.6615 40.3311L48.6426 29.9562ZM48.6426 29.9562L48.6362 30.0058L45.9763 50.6494C45.8164 51.891 46.7167 53.0577 47.9583 53.2176C49.1998 53.3776 50.3662 52.4774 50.5263 51.2358L52.3383 37.1732C52.3739 36.8962 52.5069 36.7055 52.682 36.59C52.8582 36.4737 53.0804 36.4315 53.2953 36.4592C53.5103 36.4868 53.7145 36.5838 53.8555 36.7409C53.9956 36.897 54.0759 37.1152 54.0402 37.3923L53.6615 40.3305L48.6426 29.9562ZM48.9901 57.2277L49.0039 57.2124L49.003 57.1918L48.8988 54.9552L48.8963 54.9L48.8416 54.908C48.1089 55.016 47.3562 54.9202 46.6747 54.63L46.6239 54.6084L46.6074 54.6611L45.9402 56.797L45.9341 56.8167L45.9435 56.835L47.1509 59.1619L47.1841 59.2259L47.2324 59.1724L48.9901 57.2277ZM53.3623 28.8339L53.4119 28.8403L53.4183 28.7907L53.9793 24.4365C54.1409 23.1822 53.2519 22.0301 51.9974 21.8682C51.39 21.79 50.7879 21.9531 50.303 22.3274C49.818 22.7017 49.5077 23.2426 49.4293 23.8501L48.8683 28.2045L48.8619 28.254L48.9115 28.2604L53.3623 28.8339ZM12.7323 7.8257L12.7253 7.88192H12.7819H39.4361C41.2624 7.88192 42.748 9.36446 42.7479 11.1862V50.3279C42.7479 50.5634 42.6513 50.7598 42.4946 50.9366L37.8407 55.5759L37.7683 55.6481L37.8698 55.6609L44.2035 56.4632L44.245 56.4685L44.2575 56.4285L45.1619 53.5327L45.17 53.5069L45.1529 53.4861C44.4636 52.6454 44.1353 51.5088 44.2743 50.4301L47.0503 28.886L47.0507 28.886V28.8826L47.7274 23.6311C47.8642 22.5687 48.4064 21.6234 49.2545 20.9689C49.6948 20.6292 50.1902 20.3899 50.7133 20.2566L50.7463 20.2482L50.7505 20.2144L52.2776 8.0299L52.228 8.02369L52.2776 8.02989C52.3857 7.16631 51.7523 6.36367 50.8916 6.25605L15.0972 1.77863C15.0972 1.77863 15.0972 1.77863 15.0972 1.77863C14.2359 1.67055 13.4471 2.27004 13.3207 3.12039L13.3206 3.12037L13.3203 3.1241C13.3191 3.13992 13.3177 3.1554 13.3157 3.17092C13.3157 3.17092 13.3157 3.17093 13.3157 3.17094L12.7323 7.8257ZM39.7285 51.2713L39.8142 51.1859H39.6932H33.5464C32.6665 51.1859 31.9503 51.8983 31.9504 52.7743V58.9046V59.0251L32.0357 58.9401L39.7285 51.2713Z" fill="#CB8734" stroke="white" stroke-width="0.1"/>
<path d="M35.5834 19.1742H35.6334V19.1242V14.7852V14.7352H35.5834H7.09232H7.04232V14.7852V19.1242V19.1742H7.09232H35.5834ZM37.3493 13.8772V20.0322C37.3493 20.5062 36.9653 20.8902 36.4914 20.8902H6.18435C5.71051 20.8902 5.32637 20.5062 5.32637 20.0322V13.8772C5.32637 13.4033 5.71051 13.0192 6.18435 13.0192H36.4914C36.9653 13.0192 37.3493 13.4033 37.3493 13.8772Z" fill="#CB8734" stroke="white" stroke-width="0.1"/>
<path d="M7.16589 27.3321C6.02991 27.2924 6.02929 25.6564 7.1659 25.6162H35.6323C36.7684 25.6559 36.7689 27.292 35.6323 27.3321H7.16589Z" fill="#CB8734" stroke="white" stroke-width="0.1"/>
<path d="M16.8758 33.5067C15.7399 33.4669 15.7392 31.8309 16.8759 31.7907H35.6322C36.7684 31.8305 36.7688 33.4666 35.6322 33.5067H16.8758Z" fill="#CB8734" stroke="white" stroke-width="0.1"/>
<path d="M35.6331 37.9653C36.1071 37.9653 36.4911 38.3493 36.4911 38.8233C36.4911 39.2972 36.1071 39.6812 35.6331 39.6812H16.8758C15.7399 39.6415 15.7392 38.0055 16.8759 37.9653H35.6331Z" fill="#CB8734" stroke="white" stroke-width="0.1"/>
<path d="M8.36811 41.3178L8.3633 41.367C8.3194 41.8154 8.42529 42.1374 8.5975 42.3433C8.76975 42.5493 9.01205 42.6437 9.25191 42.6314C9.49187 42.6191 9.73009 42.4997 9.89288 42.2757C10.0555 42.052 10.1454 41.7201 10.08 41.2794L10.0736 41.2359L10.1159 41.2239C11.4175 40.8553 12.2542 39.7224 12.4434 38.6042C12.6931 37.128 11.8989 35.7944 10.4641 35.284C10.3633 35.2481 10.2394 35.2093 10.1016 35.1662C9.74719 35.0552 9.30067 34.9154 8.91822 34.7225C8.65162 34.588 8.40996 34.425 8.24798 34.2228C8.08458 34.0188 8.00263 33.7752 8.05739 33.4857M8.36811 41.3178L8.76777 32.6971L8.75327 32.6492C8.32983 32.7775 8.11725 33.1688 8.05739 33.4857M8.36811 41.3178L8.31902 41.3124M8.36811 41.3178L8.31902 41.3124M8.05739 33.4857L8.10652 33.495L8.05739 33.4857C8.05739 33.4857 8.05739 33.4857 8.05739 33.4857ZM8.31902 41.3124C7.68487 41.2425 7.16253 41.0531 6.45098 40.5848C6.05517 40.3242 5.94557 39.7921 6.20606 39.3963M8.31902 41.3124L6.20606 39.3963M10.4299 32.9181L10.4299 32.9182L10.4302 32.9184L10.4312 32.9199L10.436 32.9261C10.4402 32.9316 10.4468 32.9398 10.4554 32.95C10.4728 32.9706 10.4986 32.9994 10.532 33.0319C10.5992 33.097 10.6959 33.1755 10.8156 33.2317C10.9349 33.2876 11.0761 33.321 11.2341 33.2977C11.3919 33.2743 11.571 33.1937 11.765 33.0139C11.9424 32.8494 12.0174 32.6847 12.0343 32.5316C12.0513 32.3774 12.0099 32.2294 11.9447 32.0986C11.8795 31.9677 11.7915 31.8566 11.7193 31.7779C11.6833 31.7386 11.6515 31.7077 11.6287 31.6866C11.6174 31.6761 11.6083 31.6681 11.6022 31.6628L11.5953 31.6569L11.5936 31.6555L11.5932 31.6552L11.5932 31.6552L10.4299 32.9181ZM10.4299 32.9181L10.4299 32.9181L10.4299 32.9181ZM9.21567 39.6327C10.1199 39.6267 10.6453 38.945 10.7515 38.3178L10.7515 38.3178C10.7778 38.1621 10.7971 37.8919 10.6916 37.6176C10.5851 37.341 10.3535 37.0659 9.88899 36.9006C8.52703 36.4162 7.74437 36.0368 7.17988 35.5912C6.5018 35.0559 6.18948 34.1281 6.37129 33.1666C6.56336 32.1512 7.32985 31.2704 8.32727 30.9881L8.36879 30.9763L8.36324 30.9335C8.30866 30.5124 8.40235 30.1973 8.56507 29.9862C8.72802 29.7748 8.96302 29.6639 9.19953 29.6553C9.43598 29.6467 9.67403 29.7402 9.84389 29.9391C10.0136 30.1378 10.1189 30.4462 10.0798 30.8729L10.0758 30.9168L10.1188 30.9263C10.796 31.0759 11.3138 31.396 11.5909 31.6531L11.5908 31.6532L11.5932 31.6551L9.21534 39.5827M9.21567 39.6327L9.21534 39.5827M9.21567 39.6327C9.21568 39.6327 9.21569 39.6327 9.21571 39.6327L9.21534 39.5827M9.21567 39.6327C8.78507 39.6358 8.49643 39.6268 8.23172 39.5605C7.96585 39.4939 7.72746 39.3705 7.39455 39.1514M9.21534 39.5827C8.35349 39.589 8.08436 39.5455 7.42202 39.1096M7.39455 39.1514L7.42202 39.1096M7.39455 39.1514C6.99872 38.8911 6.46677 39.0005 6.20606 39.3963M7.39455 39.1514C7.39455 39.1514 7.39454 39.1514 7.39453 39.1513L7.42202 39.1096M7.42202 39.1096L6.20606 39.3963" fill="#CB8734" stroke="white" stroke-width="0.1"/>
<path d="M24.1607 54.2236C25.2967 54.2633 25.2973 55.8994 24.1607 55.9395H7.16589C6.02991 55.8998 6.02929 54.2638 7.1659 54.2236H24.1607Z" fill="#CB8734" stroke="white" stroke-width="0.1"/>
</svg>
