<svg width="61" height="62" viewBox="0 0 61 62" fill="none" xmlns="http://www.w3.org/2000/svg">
<mask id="path-1-inside-1_162_2452" fill="white">
<path d="M15.2001 19.9842H6.7453C6.19275 19.9842 5.68815 20.2143 5.32075 20.5781C4.95347 20.9454 4.72678 21.4498 4.72678 22.0026V45.5026C4.72678 46.0038 4.32172 46.4123 3.82064 46.4123C3.31604 46.4123 2.91098 46.0038 2.91098 45.5026V22.0026C2.91098 20.9488 3.34341 19.9911 4.03691 19.2941C4.73042 18.6009 5.69154 18.1683 6.7453 18.1683H15.2V13.3421C15.2 12.8409 15.6084 12.4325 16.1096 12.4325C16.6108 12.4325 17.0193 12.8409 17.0193 13.3421V41.4901H44.3915C44.3915 29.1529 44.3915 16.8159 44.3915 4.47549L41.6487 2.1035L38.5936 4.75013C38.2436 5.05214 37.7322 5.04172 37.399 4.73972L34.351 2.1035L31.2958 4.75001C30.9491 5.05202 30.4342 5.0416 30.1012 4.73959L27.0564 2.10338L23.9979 4.74989C23.6512 5.0519 23.1362 5.04148 22.8032 4.73947L19.7584 2.10326L17.0192 4.47525V9.22601C17.0192 9.72722 16.6107 10.1357 16.1095 10.1357C15.6083 10.1357 15.1998 9.72722 15.1998 9.22601V4.06704C15.1998 3.81298 15.3097 3.55905 15.5157 3.38044L19.1543 0.229205C19.4873 -0.0695339 20.0022 -0.0797058 20.3488 0.219033L23.4074 2.86893L26.452 0.229205C26.7849 -0.0695339 27.2998 -0.0797058 27.6465 0.219033L30.7051 2.86893L33.75 0.229205C34.0829 -0.0695339 34.5978 -0.0797058 34.9445 0.219033L37.9996 2.86893L41.0446 0.229205C41.3809 -0.0695339 41.8924 -0.0797058 42.2427 0.219033L45.8366 3.33575C46.0598 3.50056 46.2073 3.76479 46.2073 4.06704V18.1683H54.0339C55.0876 18.1683 56.049 18.6009 56.7422 19.2941C57.4356 19.9879 57.8682 20.9488 57.8682 22.0026V52.8246H58.129C58.6713 52.8246 59.1382 52.9206 59.5261 53.0958C59.9276 53.281 60.2399 53.5487 60.4563 53.8886C60.6692 54.2286 60.779 54.6199 60.779 55.049C60.779 55.4813 60.6623 55.9619 60.4323 56.4701L58.9528 59.7106C58.6371 60.4039 58.2629 60.9565 57.7481 61.3548C57.1989 61.7769 56.5433 62 55.7022 62H5.07711C4.23611 62 3.58051 61.7769 3.03111 61.3548C2.51621 60.9565 2.14203 60.4039 1.82634 59.7106L0.346813 56.4701C0.113344 55.9619 0 55.4848 0 55.0522C0 54.6199 0.109953 54.2284 0.322837 53.8886C0.539111 53.5487 0.851412 53.281 1.25308 53.0958C1.64095 52.9206 2.10788 52.8246 2.65014 52.8246H2.91098V49.6184C2.91098 49.1172 3.31604 48.7087 3.82064 48.7087C4.32185 48.7087 4.72678 49.1172 4.72678 49.6184V52.8246H22.3124C22.8136 52.8246 23.2221 53.2298 23.2221 53.7309C23.2221 54.1736 23.4042 54.5752 23.6959 54.8671C23.9878 55.1587 24.3894 55.3406 24.8288 55.3406H35.9506C36.39 55.3406 36.7916 55.1587 37.0834 54.8671C37.3752 54.5752 37.5571 54.1736 37.5571 53.7309C37.5571 53.2296 37.9655 52.8246 38.4667 52.8246H56.0524V22.0026C56.0524 21.45 55.8258 20.9455 55.4585 20.5781C55.0912 20.2143 54.5867 19.9842 54.034 19.9842H46.2074V21.7247H54.034C54.5352 21.7247 54.9401 22.1297 54.9401 22.6308V26.7465C54.9401 27.2477 54.5351 27.6562 54.034 27.6562C53.5328 27.6562 53.1243 27.2477 53.1243 26.7465V23.5403H46.2074V37.92H47.7556C48.4902 37.92 49.1561 38.222 49.64 38.7026C50.1206 39.1865 50.4193 39.8525 50.4193 40.5835V44.2119C50.4193 44.9465 50.1206 45.6122 49.64 46.0965C49.1561 46.5771 48.4902 46.8756 47.7556 46.8756H13.6519C12.9173 46.8756 12.2514 46.5771 11.7708 46.0965C11.2868 45.6123 10.9882 44.9466 10.9882 44.2119V40.5835C10.9882 39.8525 11.2868 39.1865 11.7708 38.7026C12.2514 38.222 12.9173 37.92 13.6519 37.92H15.2001V23.5404H8.2832V49.2684H53.1243V30.8624C53.1243 30.3579 53.5328 29.9527 54.034 29.9527C54.5352 29.9527 54.9401 30.3579 54.9401 30.8624V50.1781C54.9401 50.6793 54.5351 51.0843 54.034 51.0843H7.37354C6.87233 51.0843 6.46739 50.6792 6.46739 50.1781V22.6309C6.46739 22.1297 6.87245 21.7248 7.37354 21.7248H15.2001V19.9842ZM21.2449 32.4207C20.7437 32.4207 20.3387 32.0158 20.3387 31.5147C20.3387 31.01 20.7438 30.605 21.2449 30.605H40.1624C40.6636 30.605 41.0721 31.01 41.0721 31.5147C41.0721 32.0159 40.6636 32.4207 40.1624 32.4207H21.2449ZM21.2449 39.4442C20.7437 39.4442 20.3387 39.039 20.3387 38.5379C20.3387 38.0334 20.7438 37.628 21.2449 37.628H36.0671C36.5683 37.628 36.9733 38.0334 36.9733 38.5379C36.9733 39.0391 36.5682 39.4442 36.0671 39.4442H21.2449ZM21.2449 35.9324C20.7437 35.9324 20.3387 35.5273 20.3387 35.0262C20.3387 34.5217 20.7438 34.1165 21.2449 34.1165H40.1624C40.6636 34.1165 41.0721 34.5217 41.0721 35.0262C41.0721 35.5274 40.6636 35.9324 40.1624 35.9324H21.2449ZM34.344 10.7402C34.7181 11.0764 34.7456 11.6498 34.4126 12.0204C34.0762 12.3946 33.503 12.4219 33.1323 12.0889C33.1289 12.0856 32.5383 11.5433 31.5153 11.3614V16.8054C31.8517 16.9359 32.2088 17.0662 32.5828 17.1968C34.1414 17.7493 35.0819 18.7996 35.4971 20.015C35.758 20.7872 35.8027 21.6214 35.6483 22.4245C35.4971 23.2176 35.1574 23.9864 34.6494 24.6456C33.9182 25.5896 32.8508 26.3069 31.5152 26.5403V27.9442C31.5152 28.4454 31.1101 28.8505 30.6056 28.8505C30.1043 28.8505 29.6994 28.4453 29.6994 27.9442V26.6092C29.1879 26.5886 28.7418 26.5372 28.2954 26.4273C27.5849 26.2523 26.9224 25.9434 26.0778 25.3906C25.6591 25.116 25.5424 24.5531 25.817 24.1343C26.0916 23.7154 26.6546 23.5988 27.0734 23.8698C27.7393 24.306 28.2337 24.5462 28.7313 24.6663C29.0265 24.7418 29.3389 24.7797 29.6993 24.7966V18.0239C28.8995 17.6705 28.0928 17.2585 27.4027 16.7195C26.8501 16.2872 26.4794 15.7002 26.2837 15.0515C26.0915 14.4165 26.0676 13.7162 26.2014 13.0364C26.3352 12.3637 26.6235 11.7046 27.0629 11.145C27.5573 10.5135 28.2369 10.0123 29.0916 9.7547C29.2976 9.6927 29.5001 9.64148 29.6993 9.60358V8.3373C29.6993 7.83609 30.1043 7.42764 30.6054 7.42764C31.11 7.42764 31.5151 7.83609 31.5151 8.3373V9.53528C33.2731 9.75131 34.3406 10.7367 34.344 10.7402ZM29.6996 11.4679C29.6688 11.4748 29.6379 11.485 29.6069 11.4918C29.1367 11.636 28.7625 11.9107 28.4914 12.2607C28.2339 12.5869 28.0622 12.9781 27.9833 13.3833C27.9043 13.7816 27.9146 14.1796 28.0212 14.5332C28.1139 14.8388 28.2786 15.1065 28.5155 15.292C28.8381 15.546 29.2328 15.7863 29.6996 16.0197V11.4679ZM31.5155 18.7417V24.6872C32.2294 24.488 32.8062 24.0694 33.2148 23.5405C33.5476 23.108 33.7708 22.6068 33.8669 22.0919C33.9631 21.5874 33.939 21.069 33.7777 20.5955C33.3933 19.4661 32.5349 19.1122 31.5155 18.7417ZM46.2073 39.7359V42.3997C46.2073 42.9009 45.7989 43.306 45.2976 43.306H16.1096C15.6084 43.306 15.2 42.9008 15.2 42.3997V39.7359H13.6518C13.4183 39.7359 13.2091 39.8322 13.0544 39.9866C12.9 40.141 12.8039 40.3538 12.8039 40.5838V44.2121C12.8039 44.4456 12.9 44.6585 13.0544 44.8129C13.2089 44.9638 13.4183 45.06 13.6518 45.06H47.7555C47.989 45.06 48.2017 44.9638 48.3529 44.8129C48.5072 44.6585 48.6033 44.4456 48.6033 44.2121V40.5838C48.6033 40.354 48.5072 40.1411 48.3529 39.9866C48.2017 39.8322 47.989 39.7359 47.7555 39.7359H46.2073ZM5.07711 60.1809H55.702C56.1175 60.1809 56.4195 60.0918 56.6392 59.9201C56.8966 59.7209 57.1095 59.3948 57.3085 58.9588L58.7845 55.7184C58.8704 55.5365 59.0453 55.0491 58.9218 54.8534C58.8017 54.6645 58.3211 54.6405 58.1289 54.6405H39.2528C39.0915 55.2204 38.7824 55.7388 38.3671 56.1509C37.7491 56.7723 36.8909 57.1568 35.9504 57.1568H24.8285C23.888 57.1568 23.0297 56.7723 22.4085 56.1509C21.9966 55.739 21.6877 55.2172 21.5264 54.6405H2.65014C2.45797 54.6405 1.97734 54.6644 1.85722 54.8534C1.73358 55.049 1.90881 55.5365 1.99454 55.7184L3.47043 58.9588C3.66963 59.3948 3.8824 59.7209 4.13645 59.9201C4.35951 60.0917 4.66164 60.1809 5.07711 60.1809Z"/>
</mask>
<path d="M15.2001 19.9842H6.7453C6.19275 19.9842 5.68815 20.2143 5.32075 20.5781C4.95347 20.9454 4.72678 21.4498 4.72678 22.0026V45.5026C4.72678 46.0038 4.32172 46.4123 3.82064 46.4123C3.31604 46.4123 2.91098 46.0038 2.91098 45.5026V22.0026C2.91098 20.9488 3.34341 19.9911 4.03691 19.2941C4.73042 18.6009 5.69154 18.1683 6.7453 18.1683H15.2V13.3421C15.2 12.8409 15.6084 12.4325 16.1096 12.4325C16.6108 12.4325 17.0193 12.8409 17.0193 13.3421V41.4901H44.3915C44.3915 29.1529 44.3915 16.8159 44.3915 4.47549L41.6487 2.1035L38.5936 4.75013C38.2436 5.05214 37.7322 5.04172 37.399 4.73972L34.351 2.1035L31.2958 4.75001C30.9491 5.05202 30.4342 5.0416 30.1012 4.73959L27.0564 2.10338L23.9979 4.74989C23.6512 5.0519 23.1362 5.04148 22.8032 4.73947L19.7584 2.10326L17.0192 4.47525V9.22601C17.0192 9.72722 16.6107 10.1357 16.1095 10.1357C15.6083 10.1357 15.1998 9.72722 15.1998 9.22601V4.06704C15.1998 3.81298 15.3097 3.55905 15.5157 3.38044L19.1543 0.229205C19.4873 -0.0695339 20.0022 -0.0797058 20.3488 0.219033L23.4074 2.86893L26.452 0.229205C26.7849 -0.0695339 27.2998 -0.0797058 27.6465 0.219033L30.7051 2.86893L33.75 0.229205C34.0829 -0.0695339 34.5978 -0.0797058 34.9445 0.219033L37.9996 2.86893L41.0446 0.229205C41.3809 -0.0695339 41.8924 -0.0797058 42.2427 0.219033L45.8366 3.33575C46.0598 3.50056 46.2073 3.76479 46.2073 4.06704V18.1683H54.0339C55.0876 18.1683 56.049 18.6009 56.7422 19.2941C57.4356 19.9879 57.8682 20.9488 57.8682 22.0026V52.8246H58.129C58.6713 52.8246 59.1382 52.9206 59.5261 53.0958C59.9276 53.281 60.2399 53.5487 60.4563 53.8886C60.6692 54.2286 60.779 54.6199 60.779 55.049C60.779 55.4813 60.6623 55.9619 60.4323 56.4701L58.9528 59.7106C58.6371 60.4039 58.2629 60.9565 57.7481 61.3548C57.1989 61.7769 56.5433 62 55.7022 62H5.07711C4.23611 62 3.58051 61.7769 3.03111 61.3548C2.51621 60.9565 2.14203 60.4039 1.82634 59.7106L0.346813 56.4701C0.113344 55.9619 0 55.4848 0 55.0522C0 54.6199 0.109953 54.2284 0.322837 53.8886C0.539111 53.5487 0.851412 53.281 1.25308 53.0958C1.64095 52.9206 2.10788 52.8246 2.65014 52.8246H2.91098V49.6184C2.91098 49.1172 3.31604 48.7087 3.82064 48.7087C4.32185 48.7087 4.72678 49.1172 4.72678 49.6184V52.8246H22.3124C22.8136 52.8246 23.2221 53.2298 23.2221 53.7309C23.2221 54.1736 23.4042 54.5752 23.6959 54.8671C23.9878 55.1587 24.3894 55.3406 24.8288 55.3406H35.9506C36.39 55.3406 36.7916 55.1587 37.0834 54.8671C37.3752 54.5752 37.5571 54.1736 37.5571 53.7309C37.5571 53.2296 37.9655 52.8246 38.4667 52.8246H56.0524V22.0026C56.0524 21.45 55.8258 20.9455 55.4585 20.5781C55.0912 20.2143 54.5867 19.9842 54.034 19.9842H46.2074V21.7247H54.034C54.5352 21.7247 54.9401 22.1297 54.9401 22.6308V26.7465C54.9401 27.2477 54.5351 27.6562 54.034 27.6562C53.5328 27.6562 53.1243 27.2477 53.1243 26.7465V23.5403H46.2074V37.92H47.7556C48.4902 37.92 49.1561 38.222 49.64 38.7026C50.1206 39.1865 50.4193 39.8525 50.4193 40.5835V44.2119C50.4193 44.9465 50.1206 45.6122 49.64 46.0965C49.1561 46.5771 48.4902 46.8756 47.7556 46.8756H13.6519C12.9173 46.8756 12.2514 46.5771 11.7708 46.0965C11.2868 45.6123 10.9882 44.9466 10.9882 44.2119V40.5835C10.9882 39.8525 11.2868 39.1865 11.7708 38.7026C12.2514 38.222 12.9173 37.92 13.6519 37.92H15.2001V23.5404H8.2832V49.2684H53.1243V30.8624C53.1243 30.3579 53.5328 29.9527 54.034 29.9527C54.5352 29.9527 54.9401 30.3579 54.9401 30.8624V50.1781C54.9401 50.6793 54.5351 51.0843 54.034 51.0843H7.37354C6.87233 51.0843 6.46739 50.6792 6.46739 50.1781V22.6309C6.46739 22.1297 6.87245 21.7248 7.37354 21.7248H15.2001V19.9842ZM21.2449 32.4207C20.7437 32.4207 20.3387 32.0158 20.3387 31.5147C20.3387 31.01 20.7438 30.605 21.2449 30.605H40.1624C40.6636 30.605 41.0721 31.01 41.0721 31.5147C41.0721 32.0159 40.6636 32.4207 40.1624 32.4207H21.2449ZM21.2449 39.4442C20.7437 39.4442 20.3387 39.039 20.3387 38.5379C20.3387 38.0334 20.7438 37.628 21.2449 37.628H36.0671C36.5683 37.628 36.9733 38.0334 36.9733 38.5379C36.9733 39.0391 36.5682 39.4442 36.0671 39.4442H21.2449ZM21.2449 35.9324C20.7437 35.9324 20.3387 35.5273 20.3387 35.0262C20.3387 34.5217 20.7438 34.1165 21.2449 34.1165H40.1624C40.6636 34.1165 41.0721 34.5217 41.0721 35.0262C41.0721 35.5274 40.6636 35.9324 40.1624 35.9324H21.2449ZM34.344 10.7402C34.7181 11.0764 34.7456 11.6498 34.4126 12.0204C34.0762 12.3946 33.503 12.4219 33.1323 12.0889C33.1289 12.0856 32.5383 11.5433 31.5153 11.3614V16.8054C31.8517 16.9359 32.2088 17.0662 32.5828 17.1968C34.1414 17.7493 35.0819 18.7996 35.4971 20.015C35.758 20.7872 35.8027 21.6214 35.6483 22.4245C35.4971 23.2176 35.1574 23.9864 34.6494 24.6456C33.9182 25.5896 32.8508 26.3069 31.5152 26.5403V27.9442C31.5152 28.4454 31.1101 28.8505 30.6056 28.8505C30.1043 28.8505 29.6994 28.4453 29.6994 27.9442V26.6092C29.1879 26.5886 28.7418 26.5372 28.2954 26.4273C27.5849 26.2523 26.9224 25.9434 26.0778 25.3906C25.6591 25.116 25.5424 24.5531 25.817 24.1343C26.0916 23.7154 26.6546 23.5988 27.0734 23.8698C27.7393 24.306 28.2337 24.5462 28.7313 24.6663C29.0265 24.7418 29.3389 24.7797 29.6993 24.7966V18.0239C28.8995 17.6705 28.0928 17.2585 27.4027 16.7195C26.8501 16.2872 26.4794 15.7002 26.2837 15.0515C26.0915 14.4165 26.0676 13.7162 26.2014 13.0364C26.3352 12.3637 26.6235 11.7046 27.0629 11.145C27.5573 10.5135 28.2369 10.0123 29.0916 9.7547C29.2976 9.6927 29.5001 9.64148 29.6993 9.60358V8.3373C29.6993 7.83609 30.1043 7.42764 30.6054 7.42764C31.11 7.42764 31.5151 7.83609 31.5151 8.3373V9.53528C33.2731 9.75131 34.3406 10.7367 34.344 10.7402ZM29.6996 11.4679C29.6688 11.4748 29.6379 11.485 29.6069 11.4918C29.1367 11.636 28.7625 11.9107 28.4914 12.2607C28.2339 12.5869 28.0622 12.9781 27.9833 13.3833C27.9043 13.7816 27.9146 14.1796 28.0212 14.5332C28.1139 14.8388 28.2786 15.1065 28.5155 15.292C28.8381 15.546 29.2328 15.7863 29.6996 16.0197V11.4679ZM31.5155 18.7417V24.6872C32.2294 24.488 32.8062 24.0694 33.2148 23.5405C33.5476 23.108 33.7708 22.6068 33.8669 22.0919C33.9631 21.5874 33.939 21.069 33.7777 20.5955C33.3933 19.4661 32.5349 19.1122 31.5155 18.7417ZM46.2073 39.7359V42.3997C46.2073 42.9009 45.7989 43.306 45.2976 43.306H16.1096C15.6084 43.306 15.2 42.9008 15.2 42.3997V39.7359H13.6518C13.4183 39.7359 13.2091 39.8322 13.0544 39.9866C12.9 40.141 12.8039 40.3538 12.8039 40.5838V44.2121C12.8039 44.4456 12.9 44.6585 13.0544 44.8129C13.2089 44.9638 13.4183 45.06 13.6518 45.06H47.7555C47.989 45.06 48.2017 44.9638 48.3529 44.8129C48.5072 44.6585 48.6033 44.4456 48.6033 44.2121V40.5838C48.6033 40.354 48.5072 40.1411 48.3529 39.9866C48.2017 39.8322 47.989 39.7359 47.7555 39.7359H46.2073ZM5.07711 60.1809H55.702C56.1175 60.1809 56.4195 60.0918 56.6392 59.9201C56.8966 59.7209 57.1095 59.3948 57.3085 58.9588L58.7845 55.7184C58.8704 55.5365 59.0453 55.0491 58.9218 54.8534C58.8017 54.6645 58.3211 54.6405 58.1289 54.6405H39.2528C39.0915 55.2204 38.7824 55.7388 38.3671 56.1509C37.7491 56.7723 36.8909 57.1568 35.9504 57.1568H24.8285C23.888 57.1568 23.0297 56.7723 22.4085 56.1509C21.9966 55.739 21.6877 55.2172 21.5264 54.6405H2.65014C2.45797 54.6405 1.97734 54.6644 1.85722 54.8534C1.73358 55.049 1.90881 55.5365 1.99454 55.7184L3.47043 58.9588C3.66963 59.3948 3.8824 59.7209 4.13645 59.9201C4.35951 60.0917 4.66164 60.1809 5.07711 60.1809Z" fill="#CB8734" stroke="white" stroke-width="0.4" mask="url(#path-1-inside-1_162_2452)"/>
</svg>
