<svg width="62" height="62" viewBox="0 0 62 62" fill="none" xmlns="http://www.w3.org/2000/svg">
<path d="M21.964 44.5631L21.9776 44.567L21.9916 44.5682C27.6375 45.0796 32.0763 49.8388 32.0763 55.6154V60.789C32.0763 61.375 31.6013 61.85 31.0154 61.85H1.21094C0.624979 61.85 0.15 61.375 0.15 60.789V55.6154C0.15 49.8387 4.58902 45.0795 10.235 44.5682L10.2491 44.567L10.2627 44.5631C10.3384 44.5415 10.4168 44.5291 10.4967 44.5248L10.8216 44.5073L10.5973 44.2716C9.29604 42.9041 8.49529 41.0573 8.49529 39.0258V33.0973C8.49529 29.76 11.2106 27.0445 14.5481 27.0445H22.6702C23.2562 27.0445 23.7311 27.5195 23.7311 28.1055V32.1362C23.7311 32.2486 23.7259 32.3607 23.7181 32.4736L23.717 32.4893L23.7192 32.5049C23.7265 32.5568 23.7311 32.6061 23.7311 32.655V39.0258C23.7311 41.0572 22.9303 42.9041 21.6291 44.2716L21.4048 44.5074L21.7297 44.5248C21.8098 44.5291 21.8882 44.5415 21.964 44.5631ZM21.6093 29.3163V29.1663H21.4593H14.5481C12.3805 29.1663 10.6172 30.9296 10.6172 33.0972V34.6329V34.7105V34.8605H10.7672H18.8848C20.3872 34.8605 21.6093 33.6385 21.6093 32.1361V29.3163ZM10.7672 36.9824H10.6172V37.1324V39.0257C10.6172 42.0563 13.0826 44.5217 16.1132 44.5217C19.1438 44.5217 21.6093 42.0563 21.6093 39.0257V36.4163V36.1504L21.3817 36.2878C20.652 36.7285 19.7978 36.9824 18.8848 36.9824H10.7672ZM18.8549 46.8998L19.1109 46.6437H18.7488H13.4776H13.1155L13.3715 46.8998L16.0071 49.5355L16.1132 49.6416L16.2193 49.5355L18.8549 46.8998ZM29.8046 59.7281H29.9546V59.5781V55.6154C29.9546 51.0533 26.5314 47.2789 22.1195 46.7182L22.0465 46.7089L21.9945 46.7609L16.8634 51.892C16.6645 52.091 16.3946 52.2028 16.1132 52.2028C15.8319 52.2028 15.562 52.091 15.363 51.892L10.2319 46.7609L10.1799 46.7089L10.1069 46.7182C5.9874 47.2419 2.73052 50.5668 2.31681 54.7195L2.30039 54.8843H2.46607H7.44726C8.03322 54.8843 8.5082 55.3593 8.5082 55.9453C8.5082 56.5312 8.03322 57.0062 7.44726 57.0062H2.42187H2.27187V57.1562V59.5781V59.7281H2.42187H29.8046Z" fill="#CB8734" stroke="white" stroke-width="0.3"/>
<path d="M51.7378 17.6687L51.7514 17.6726L51.7654 17.6738C57.4111 18.1853 61.8499 22.9445 61.8499 28.721V33.8945C61.8499 34.4804 61.3749 34.9554 60.7889 34.9554H50.6574C50.0714 34.9554 49.5964 34.4804 49.5964 33.8945C49.5964 33.3085 50.0714 32.8336 50.6574 32.8336H59.578H59.728V32.6836V28.721C59.728 24.1589 56.3049 20.3846 51.8928 19.8238L51.8198 19.8145L51.7678 19.8665L46.6367 24.9976L46.6367 24.9977C46.4296 25.2048 46.1583 25.3084 45.8865 25.3084C45.6148 25.3084 45.3436 25.2049 45.1363 24.9976L40.0052 19.8665L39.9532 19.8145L39.8803 19.8238C35.4684 20.3845 32.0453 24.1589 32.0453 28.721V32.6834V32.8334H32.1953H40.7276C41.3135 32.8334 41.7885 33.3084 41.7885 33.8944C41.7885 34.4803 41.3135 34.9553 40.7276 34.9553H30.9844C30.3984 34.9553 29.9234 34.4803 29.9234 33.8944V28.7209C29.9234 22.9444 34.3621 18.1852 40.0079 17.6737L40.0219 17.6724L40.0355 17.6686C40.1113 17.647 40.1899 17.6346 40.27 17.6303L40.5949 17.6128L40.3706 17.3771C39.0695 16.0095 38.2687 14.1627 38.2687 12.1313V6.20278C38.2687 2.86545 40.9841 0.15 44.3215 0.15H52.4436C53.0296 0.15 53.5046 0.624979 53.5046 1.21094V5.24166C53.5046 5.35406 53.4993 5.46615 53.4915 5.57905L53.4904 5.59475L53.4926 5.61034C53.4999 5.66228 53.5046 5.7116 53.5046 5.76043V12.1314C53.5046 14.1628 52.7038 16.0096 51.4027 17.3772L51.1784 17.613L51.5033 17.6304C51.5835 17.6347 51.662 17.6471 51.7378 17.6687ZM45.7807 22.641L45.8868 22.7471L45.9928 22.641L48.6284 20.0054L48.8845 19.7493H48.5224H43.2512H42.889L43.1451 20.0054L45.7807 22.641ZM40.5407 10.088H40.3907V10.238V12.1314C40.3907 15.162 42.8562 17.6273 45.8868 17.6273C48.9174 17.6273 51.3828 15.1619 51.3828 12.1313V9.52184V9.25606L51.1553 9.39343C50.4256 9.83399 49.5713 10.088 48.6584 10.088H40.5407ZM40.3907 7.81611V7.96611H40.5407H48.6584C50.1608 7.96611 51.3828 6.74409 51.3828 5.24166V2.42187V2.27187H51.2328H44.3216C42.154 2.27187 40.3907 4.03519 40.3907 6.20278V7.73849V7.81611Z" fill="#CB8734" stroke="white" stroke-width="0.3"/>
<path d="M45.1369 33.1443L45.1371 33.144C45.3343 32.9468 45.6074 32.8331 45.8872 32.8331C46.1658 32.8331 46.4401 32.9468 46.6373 33.144C46.8344 33.3411 46.9481 33.6154 46.9481 33.894C46.9481 34.1738 46.8345 34.4469 46.6373 34.6441L46.637 34.6444C46.4402 34.8422 46.1662 34.955 45.8872 34.955C45.6071 34.955 45.3343 34.8423 45.1374 34.6444L45.1369 34.6438C44.939 34.447 44.8263 34.1742 44.8263 33.894C44.8263 33.6151 44.939 33.341 45.1369 33.1443Z" fill="#CB8734" stroke="white" stroke-width="0.3"/>
<path d="M27.1668 11.8803V11.9424L27.2107 11.9863L32.275 17.0506C32.5783 17.354 32.6691 17.8104 32.5049 18.2068C32.3407 18.6032 31.9537 18.8617 31.5247 18.8617H26.8645H26.7636L26.7256 18.9552C25.8325 21.1505 23.7041 22.6156 21.262 22.6156H6.05469C2.79897 22.6156 0.15 19.9666 0.15 16.7109V6.05469C0.15 2.79897 2.79897 0.15 6.05469 0.15H21.2621C24.5178 0.15 27.1668 2.79897 27.1668 6.05469V11.8803ZM28.6012 16.7398H28.9634L28.7073 16.4838L25.3556 13.132C25.1566 12.9331 25.0448 12.6632 25.0448 12.3818V6.05469C25.0448 3.96871 23.348 2.27187 21.262 2.27187H6.05469C3.96871 2.27187 2.27187 3.96871 2.27187 6.05469V16.7109C2.27187 18.7969 3.96871 20.4937 6.05469 20.4937H21.262C23.0343 20.4937 24.5502 19.2882 24.9471 17.5629C25.058 17.0811 25.4868 16.7398 25.9811 16.7398H28.6012Z" fill="#CB8734" stroke="white" stroke-width="0.3"/>
<path d="M35.1353 43.1383H35.2362L35.2743 43.0448C36.1674 40.8495 38.2958 39.3844 40.7379 39.3844H55.9452C59.2009 39.3844 61.8498 42.0333 61.8498 45.2891V55.9453C61.8498 59.201 59.2009 61.85 55.9452 61.85H40.7377C37.482 61.85 34.833 59.201 34.833 55.9453V50.1197V50.0576L34.7891 50.0137L29.7249 44.9494C29.7249 44.9494 29.7249 44.9494 29.7249 44.9494C29.4215 44.646 29.3307 44.1895 29.495 43.7932C29.6592 43.3968 30.0461 43.1383 30.4752 43.1383H35.1353ZM33.3986 45.2602H33.0365L33.2925 45.5162L36.6443 48.868C36.8432 49.0669 36.955 49.3368 36.955 49.6182V55.9453C36.955 58.0313 38.6519 59.7281 40.7379 59.7281H55.9452C58.0311 59.7281 59.728 58.0313 59.728 55.9453V45.2891C59.728 43.2031 58.0311 41.5062 55.9452 41.5062H40.7379C38.9655 41.5062 37.4496 42.7118 37.0527 44.4371C36.9418 44.9188 36.513 45.2602 36.0187 45.2602H33.3986Z" fill="#CB8734" stroke="white" stroke-width="0.3"/>
<path d="M48.8532 50.8263L48.7471 50.7203L47.2503 49.2234C46.836 48.8092 46.1642 48.8091 45.7498 49.2234C45.7498 49.2234 45.7498 49.2235 45.7498 49.2235M48.8532 50.8263L49.7093 53.1831C49.4729 53.4196 49.1629 53.5378 48.8531 53.5378C48.5432 53.5378 48.2333 53.4196 47.9968 53.1831L45.6437 50.83C45.1708 50.357 45.1708 49.5902 45.6437 49.1174L45.7498 49.2235M48.8532 50.8263L48.9592 50.7203L52.1783 47.5012C52.5926 47.0869 53.2644 47.087 53.6785 47.5012C54.0928 47.9157 54.0928 48.5875 53.6785 49.0017L49.6032 53.077L49.6032 53.0771C49.3961 53.2842 49.1248 53.3878 48.8531 53.3878C48.5813 53.3878 48.3101 53.2843 48.1029 53.077L45.7498 50.7239L45.6437 50.83L45.7498 50.7239M48.8532 50.8263L45.7498 50.7239M45.7498 49.2235C45.3355 49.6377 45.3355 50.3095 45.7498 50.7239M45.7498 49.2235L45.7498 50.7239" fill="#CB8734" stroke="white" stroke-width="0.3"/>
<path d="M16.7476 8.19134C16.8088 9.07762 16.2278 9.86086 15.3662 10.0536M16.7476 8.19134L16.8973 8.18102C16.8973 8.18102 16.8973 8.18102 16.8973 8.18101C16.8317 7.22975 16.0657 6.46373 15.1144 6.3981C14.5729 6.3601 14.0555 6.54297 13.6613 6.91108C13.2667 7.27945 13.0489 7.78052 13.0489 8.31994C13.0489 8.9059 12.5739 9.38088 11.9879 9.38088C11.402 9.38088 10.927 8.90592 10.9269 8.31982L15.3662 10.0536M16.7476 8.19134C16.6872 7.31474 15.9806 6.60816 15.104 6.54774L16.7476 8.19134ZM15.3662 10.0536C14.4231 10.2646 13.7645 11.0845 13.7645 12.0474M15.3662 10.0536L13.7645 12.0474M12.2133 5.35986L12.2133 5.35987C11.3959 6.12285 10.9269 7.20204 10.9269 8.31979L12.2133 5.35986ZM12.2133 5.35986C13.0425 4.58576 14.124 4.20291 15.2601 4.28108L12.2133 5.35986ZM13.7645 12.0474V12.6935M13.7645 12.0474V12.6935M13.7645 12.6935C13.7645 13.3623 14.3066 13.9044 14.9754 13.9044M13.7645 12.6935L14.9754 13.9044M14.9754 13.9044C15.6442 13.9044 16.1864 13.3623 16.1864 12.6935M14.9754 13.9044L16.1864 12.6935M16.1864 12.6935V12.3411V12.6935Z" fill="#CB8734" stroke="white" stroke-width="0.3"/>
<path d="M14.2252 16.5776L14.2255 16.5773C14.4227 16.3801 14.6958 16.2665 14.9756 16.2665C15.2542 16.2665 15.5285 16.3802 15.7257 16.5773C15.9228 16.7745 16.0365 17.0488 16.0365 17.3274C16.0365 17.606 15.9228 17.8803 15.7257 18.0775C15.5285 18.2746 15.2542 18.3883 14.9756 18.3883C14.6958 18.3883 14.4227 18.2747 14.2255 18.0775L14.2252 18.0772C14.0274 17.8804 13.9146 17.6064 13.9146 17.3274C13.9146 17.0484 14.0274 16.7744 14.2252 16.5776Z" fill="#CB8734" stroke="white" stroke-width="0.3"/>
<path d="M12.291 54.8844C12.5697 54.8844 12.8439 54.9981 13.0411 55.1952C13.2382 55.3924 13.352 55.6667 13.352 55.9453C13.352 56.224 13.2382 56.4982 13.0411 56.6954C12.8439 56.8925 12.5697 57.0062 12.291 57.0062C12.0124 57.0062 11.7381 56.8925 11.5409 56.6954C11.3438 56.4982 11.2301 56.224 11.2301 55.9453C11.2301 55.6667 11.3438 55.3924 11.5409 55.1952C11.7381 54.9981 12.0124 54.8844 12.291 54.8844Z" fill="#CB8734" stroke="white" stroke-width="0.3"/>
</svg>
