<svg width="62" height="62" viewBox="0 0 62 62" fill="none" xmlns="http://www.w3.org/2000/svg">
<path d="M59.0695 20.6025L42.7789 30.3129C41.5762 31.0298 41.0945 32.5047 41.5796 33.771C40.8532 34.0757 40.0403 34.09 39.2957 33.8023L37.1883 32.9743C36.3476 32.6439 35.44 32.5864 34.564 32.8082L31.3351 33.6253C31.2099 33.657 31.0872 33.694 30.9672 33.736C28.9946 32.6099 27.8195 32.2732 25.7379 33.0781L23.8691 33.8006C22.9859 34.1419 22.0122 34.0609 21.1957 33.5773L20.5714 33.2093C20.7505 32.0924 20.2492 30.9258 19.2212 30.3131L2.9306 20.6025C1.63889 19.8329 0 20.7619 0 22.2675V40.4524C0 41.7081 0.670013 42.8875 1.7486 43.5303L8.86142 47.7702C10.1845 48.5587 11.8853 48.1498 12.7088 46.8641L13.0129 47.0435L12.0906 48.3282C11.0605 49.7628 11.388 51.7576 12.8229 52.7879C13.5321 53.2971 14.3965 53.4891 15.2434 53.3387C15.3731 54.1957 15.8347 54.9501 16.5394 55.456C17.2467 55.9638 18.1165 56.1549 18.9611 56.0051C19.0855 56.8278 19.5281 57.6017 20.2559 58.1241C21.2365 58.828 22.4524 58.8854 23.4394 58.4399C23.6566 59.0418 24.0495 59.5638 24.5804 59.945C25.9596 60.9351 27.8722 60.6678 28.9298 59.3573L31.3189 60.7727C31.8288 61.0748 32.3893 61.2184 32.9428 61.2184C34.0356 61.2184 35.1019 60.6585 35.6981 59.652C35.9499 59.227 36.0917 58.7668 36.1319 58.3048L36.2249 58.3599C36.9596 58.7951 37.8198 58.9184 38.6467 58.7065C39.4739 58.4948 40.1691 57.9736 40.6041 57.2392C40.8732 56.7851 41.0229 56.283 41.0481 55.7705C41.5804 55.9192 42.1449 55.9261 42.6948 55.7855C43.522 55.5739 44.2172 55.0527 44.6523 54.3182C44.9055 53.891 45.0531 53.4213 45.0904 52.9402C46.5401 53.5538 48.2604 53.0153 49.0842 51.6249C49.8077 50.4038 49.6223 48.8919 48.7306 47.8804L49.6669 47.3334C50.5547 48.2296 51.9836 48.4585 53.1388 47.7701L54.8584 46.745C55.2893 46.4882 55.4304 45.9307 55.1736 45.4999C54.9166 45.0688 54.3587 44.928 53.9285 45.1847L52.2089 46.2098C51.8035 46.4516 51.3099 46.3779 50.9918 46.0869C50.9859 46.0358 43.3515 33.2774 43.3515 33.2774C43.0639 32.792 43.2243 32.162 43.7089 31.8731L59.9995 22.1627C60.0826 22.1138 60.1837 22.1722 60.1837 22.2673V40.4523C60.1837 41.0714 59.8532 41.653 59.3215 41.9699L57.6045 42.9934C57.1736 43.2503 57.0325 43.8078 57.2893 44.2385C57.546 44.6695 58.1039 44.8101 58.5344 44.5537L60.2514 43.5302C61.33 42.8873 62 41.708 62 40.4523V22.2675C62.0001 20.764 60.3628 19.8315 59.0695 20.6025V20.6025ZM35.0095 34.569C35.515 34.4412 36.0388 34.4743 36.5241 34.6649L38.6361 35.4947C39.8967 35.9821 41.2734 35.9286 42.4744 35.3612L48.6671 45.8141L47.6636 46.4004C47.4812 46.5084 47.3063 46.6281 47.14 46.7586L33.8958 38.9155C33.615 38.7492 33.2666 38.7464 32.9833 38.9079C32.6999 39.0695 32.5249 39.3706 32.5249 39.697V39.8795C32.5249 40.5255 32.2732 41.1329 31.8162 41.5896C31.3596 42.046 30.7527 42.2971 30.1074 42.2971C30.0025 42.2933 29.9101 42.2091 29.91 42.0997V37.7894C29.91 36.8503 30.4356 36.0121 31.2401 35.5923C31.28 35.5762 31.319 35.5572 31.3566 35.5354C31.4912 35.4738 31.633 35.4237 31.7806 35.3863L35.0095 34.569ZM10.5699 46.3229C10.3039 46.3902 10.0273 46.3506 9.79142 46.2098L2.6786 41.9701C2.14675 41.653 1.81641 41.0715 1.81641 40.4524V22.2675C1.81641 22.2481 1.81641 22.1966 1.87805 22.1616C1.90105 22.1485 1.92176 22.1439 1.93944 22.1439C1.96899 22.1439 1.99018 22.1565 2.00059 22.1627L18.2914 31.8731C18.776 32.162 18.9364 32.792 18.6487 33.2776L11.1995 45.8516C11.0596 46.0877 10.836 46.2552 10.5699 46.3229V46.3229ZM14.9101 51.5529C14.5465 51.6128 14.1816 51.5272 13.8821 51.3123C13.5829 51.0975 13.3851 50.779 13.3254 50.4155C13.2657 50.0519 13.3511 49.6869 13.566 49.3877L14.8617 47.5828C14.8933 47.5387 14.9273 47.4971 14.9629 47.458C14.9897 47.4339 15.0153 47.4079 15.0395 47.3803C15.5102 46.9394 16.2434 46.8768 16.7867 47.2667C17.4045 47.7103 17.5463 48.5738 17.1027 49.1916C17.102 49.1926 17.1013 49.1937 17.1005 49.1946L15.8069 50.9965C15.5922 51.2956 15.2736 51.4932 14.9101 51.5529V51.5529ZM17.5986 53.9804C17.2994 53.7656 17.1016 53.4471 17.0419 53.0836C16.9822 52.7199 17.0676 52.355 17.2825 52.0557L18.5782 50.2508C18.5782 50.2508 18.5782 50.2507 18.5784 50.2507L20.0082 48.2589C20.2231 47.9596 20.5415 47.762 20.9052 47.7022C20.9809 47.6897 21.0564 47.6836 21.1316 47.6836C21.4178 47.6836 21.696 47.7726 21.9331 47.9429C22.551 48.3863 22.6928 49.2499 22.2492 49.8678L19.5234 53.6646C19.0798 54.2823 18.2163 54.4236 17.5986 53.9804V53.9804ZM22.3429 56.8891C21.9795 56.9488 21.6144 56.8633 21.3151 56.6485C20.6973 56.205 20.5555 55.3415 20.999 54.7237C20.9998 54.7226 21.0005 54.7216 21.0012 54.7205L23.7249 50.9268C24.1683 50.3088 25.0318 50.1674 25.6498 50.6107C25.949 50.8255 26.1467 51.144 26.2064 51.5077C26.2661 51.8712 26.1806 52.2363 25.9658 52.5355L23.24 56.3323C23.0251 56.6316 22.7065 56.8294 22.3429 56.8891V56.8891ZM25.6396 58.4694C25.3404 58.2545 25.1426 57.9361 25.0829 57.5724C25.0232 57.2089 25.1086 56.8439 25.3235 56.5447C25.3245 56.5434 25.3254 56.5421 25.3262 56.5408L26.2309 55.2807C26.6748 54.6641 27.5374 54.5228 28.1547 54.966C28.7725 55.4095 28.9143 56.2731 28.4708 56.8909L27.9525 57.6129C27.947 57.6201 27.9417 57.6276 27.9365 57.6351L27.5644 58.1535C27.1211 58.7711 26.2577 58.913 25.6396 58.4694V58.4694ZM47.5215 50.6991C47.1337 51.3536 46.2852 51.5707 45.6311 51.1829L43.5315 49.9391C43.5305 49.9386 43.5297 49.938 43.5287 49.9376L37.0259 46.0851C36.5942 45.8294 36.0372 45.972 35.7817 46.4034C35.5261 46.835 35.6685 47.3922 36.1001 47.6477L42.6057 51.5018C42.6057 51.5018 42.6057 51.5018 42.6058 51.502L42.6067 51.5024C43.2606 51.8906 43.4772 52.7382 43.0897 53.3925C42.9018 53.7096 42.6017 53.9346 42.2446 54.0259C41.8875 54.1172 41.5161 54.0643 41.199 53.8763L39.4875 52.8625C39.4861 52.8616 39.4849 52.8608 39.4834 52.8599C39.4826 52.8594 39.4816 52.8588 39.4808 52.8583L34.6902 50.0203C34.2585 49.7645 33.7015 49.9072 33.4459 50.3386C33.1903 50.7702 33.3327 51.3273 33.7643 51.5829L38.555 54.4211C38.556 54.4217 38.5569 54.4223 38.5578 54.4228C38.8748 54.6106 39.0999 54.9106 39.1912 55.2677C39.2826 55.6249 39.2294 55.9962 39.0416 56.3134C38.8537 56.6305 38.5537 56.8555 38.1964 56.9468C37.8395 57.0383 37.4679 56.9851 37.1509 56.7973L34.5824 55.2756C34.5807 55.2747 34.5791 55.2736 34.5775 55.2726L32.6991 54.1599C32.2678 53.9045 31.7106 54.0468 31.4549 54.4785C31.1994 54.9099 31.3418 55.4671 31.7735 55.7227L33.6518 56.8354L33.6543 56.8369C34.3071 57.2254 34.5232 58.0722 34.1359 58.7261C33.7478 59.3807 32.8997 59.5976 32.2453 59.2101L29.997 57.8782C30.9632 56.4523 30.6221 54.501 29.2145 53.4903C28.7843 53.1815 28.3027 52.9953 27.8115 52.9246C28.0288 52.3875 28.0954 51.7997 27.9991 51.2135C27.8608 50.3712 27.4027 49.6331 26.7093 49.1353C25.9817 48.613 25.1069 48.4411 24.2876 48.5863C24.1632 47.7636 23.7206 46.9896 22.9928 46.4672C22.2993 45.9694 21.4539 45.7716 20.6113 45.9097C19.9077 46.0252 19.2771 46.3638 18.7983 46.8763C18.5752 46.459 18.2559 46.0852 17.8463 45.7911C16.761 45.0119 15.3483 45.0124 14.2805 45.6824L13.6365 45.3023L19.8157 34.8721L20.272 35.1411C21.0394 35.5958 21.8954 35.8265 22.7578 35.8265C23.3527 35.8265 23.9507 35.7166 24.5246 35.4948L26.3933 34.7723C27.5104 34.3408 28.1103 34.3203 29.2381 34.869C28.5211 35.6426 28.0939 36.675 28.0939 37.7894V42.0997C28.0939 43.2093 28.996 44.1127 30.1048 44.1135H30.1076C31.238 44.1135 32.3009 43.6735 33.1006 42.8744C33.5859 42.3894 33.939 41.8073 34.1418 41.172L46.7918 48.6632C46.8336 48.688 46.8767 48.7089 46.9208 48.7264C46.9571 48.7564 46.9961 48.784 47.038 48.8088C47.6921 49.1966 47.9093 50.0446 47.5215 50.6991V50.6991Z" fill="#CB8734"/>
<path d="M20.589 23.6646H41.4105C43.2957 23.6646 44.8294 22.1309 44.8294 20.2457V7.85755C44.8294 5.97236 43.2957 4.4387 41.4105 4.4387H36.3982V2.99962C36.3982 1.34572 35.0528 0 33.3991 0H28.6002C26.9466 0 25.6011 1.3456 25.6011 2.99962V4.4387H20.5888C18.7036 4.4387 17.1699 5.97236 17.1699 7.85755V14.6818C17.1699 15.1835 17.5766 15.59 18.0781 15.59C18.5797 15.59 18.9863 15.1835 18.9863 14.6818V12.9939C19.9529 13.8613 21.2297 14.3896 22.6275 14.3896H23.3383V15.3886C23.3383 15.8903 23.745 16.2968 24.2465 16.2968C24.7481 16.2968 25.1547 15.8903 25.1547 15.3886V14.3896H36.8443V15.3886C36.8443 15.8903 37.2508 16.2968 37.7525 16.2968C38.2542 16.2968 38.6607 15.8903 38.6607 15.3886V14.3896H39.3714C40.7693 14.3896 42.0461 13.8613 43.0127 12.9939V20.2456C43.0127 21.1292 42.2938 21.848 41.4103 21.848H20.589C19.7054 21.848 18.9866 21.1291 18.9866 20.2456V18.9276C18.9866 18.4259 18.5799 18.0194 18.0784 18.0194C17.5768 18.0194 17.1702 18.4259 17.1702 18.9276V20.2456C17.1702 22.1309 18.7038 23.6646 20.589 23.6646V23.6646ZM27.4177 2.99962C27.4177 2.34716 27.9483 1.81641 28.6005 1.81641H33.3993C34.0515 1.81641 34.582 2.34716 34.582 2.99962V4.4387H27.4179V2.99962H27.4177ZM39.3718 12.5732H38.6611V11.5742C38.6611 11.0725 38.2546 10.666 37.7529 10.666C37.2512 10.666 36.8447 11.0725 36.8447 11.5742V12.5732H25.1551V11.5742C25.1551 11.0725 24.7485 10.666 24.2469 10.666C23.7453 10.666 23.3387 11.0725 23.3387 11.5742V12.5732H22.6279C20.6201 12.5732 18.9867 10.9398 18.9867 8.93201V7.85755C18.9867 6.97392 19.7055 6.25511 20.5891 6.25511H41.4106C42.2943 6.25511 43.0131 6.97405 43.0131 7.85755V8.93201C43.0131 10.9398 41.3796 12.5732 39.3718 12.5732Z" fill="#CB8734"/>
</svg>
